<svg width="391" height="66" viewBox="0 0 391 66" fill="none" xmlns="http://www.w3.org/2000/svg">
<path fill-rule="evenodd" clip-rule="evenodd" d="M0 1.98534L6.51667 11.3208C13.0333 20.6563 26.0667 39.3272 39.1 48.6627C52.1333 57.9982 65.1667 57.9982 78.2 48.6627C91.2333 39.3272 104.267 20.6563 117.3 19.3226C130.333 17.989 143.367 33.9927 156.4 32.659C169.433 31.3254 182.467 12.6545 195.5 4.65262C208.533 -3.34921 221.567 -0.681934 234.6 9.98718C247.633 20.6563 260.667 39.3272 273.7 47.3291C286.733 55.3309 299.767 52.6636 312.8 40.6609C325.833 28.6581 338.867 7.3199 351.9 4.65262C364.933 1.98534 377.967 17.989 384.483 25.9908L391 33.9927V66H384.483C377.967 66 364.933 66 351.9 66C338.867 66 325.833 66 312.8 66C299.767 66 286.733 66 273.7 66C260.667 66 247.633 66 234.6 66C221.567 66 208.533 66 195.5 66C182.467 66 169.433 66 156.4 66C143.367 66 130.333 66 117.3 66C104.267 66 91.2333 66 78.2 66C65.1667 66 52.1333 66 39.1 66C26.0667 66 13.0333 66 6.51667 66H0V1.98534Z" fill="white"/>
</svg>
